<svg width="366" height="162" viewBox="0 0 366 162" fill="none" xmlns="http://www.w3.org/2000/svg">
<path d="M160.148 68.4688C160.148 67.0781 160.414 65.7734 160.945 64.5547C161.477 63.3359 162.195 62.2734 163.102 61.3672C164.023 60.4453 165.094 59.7188 166.312 59.1875C167.531 58.6562 168.836 58.3906 170.227 58.3906H185.648V65.1172H170.227C169.758 65.1172 169.32 65.2031 168.914 65.375C168.508 65.5469 168.148 65.7891 167.836 66.1016C167.539 66.3984 167.305 66.75 167.133 67.1562C166.961 67.5625 166.875 68 166.875 68.4688C166.875 68.9375 166.961 69.3828 167.133 69.8047C167.305 70.2109 167.539 70.5703 167.836 70.8828C168.148 71.1797 168.508 71.4141 168.914 71.5859C169.32 71.7578 169.758 71.8438 170.227 71.8438H176.953C178.344 71.8438 179.648 72.1094 180.867 72.6406C182.102 73.1562 183.172 73.875 184.078 74.7969C185 75.7031 185.719 76.7734 186.234 78.0078C186.766 79.2266 187.031 80.5312 187.031 81.9219C187.031 83.3125 186.766 84.6172 186.234 85.8359C185.719 87.0547 185 88.125 184.078 89.0469C183.172 89.9531 182.102 90.6719 180.867 91.2031C179.648 91.7344 178.344 92 176.953 92H162.023V85.2734H176.953C177.422 85.2734 177.859 85.1875 178.266 85.0156C178.672 84.8438 179.023 84.6094 179.32 84.3125C179.633 84 179.875 83.6406 180.047 83.2344C180.219 82.8281 180.305 82.3906 180.305 81.9219C180.305 81.4531 180.219 81.0156 180.047 80.6094C179.875 80.2031 179.633 79.8516 179.32 79.5547C179.023 79.2422 178.672 79 178.266 78.8281C177.859 78.6562 177.422 78.5703 176.953 78.5703H170.227C168.836 78.5703 167.531 78.3047 166.312 77.7734C165.094 77.2422 164.023 76.5234 163.102 75.6172C162.195 74.6953 161.477 73.625 160.945 72.4062C160.414 71.1719 160.148 69.8594 160.148 68.4688ZM197.227 92H190.781V56.9141H197.227V79.0391L206.766 66.9453H214.125L205.805 77.3984L214.125 92H206.766L201.68 82.8828L197.227 88.7891V92ZM222.703 101.562V95.1172L226.266 95.1641C226.891 95.1641 227.492 95.0625 228.07 94.8594C228.648 94.6562 229.18 94.375 229.664 94.0156C230.164 93.6562 230.602 93.2266 230.977 92.7266C231.352 92.2422 231.656 91.7109 231.891 91.1328C231.188 91.4297 230.469 91.7266 229.734 92.0234C229.016 92.3203 228.289 92.4688 227.555 92.4688C226.008 92.4688 224.555 92.1953 223.195 91.6484C221.836 91.1016 220.641 90.3281 219.609 89.3281C218.594 88.3125 217.789 87.0859 217.195 85.6484C216.617 84.1953 216.328 82.5703 216.328 80.7734V66.8984H222.703V80.7734C222.703 81.6641 222.828 82.4453 223.078 83.1172C223.344 83.7734 223.695 84.3281 224.133 84.7812C224.57 85.2188 225.078 85.5469 225.656 85.7656C226.25 85.9844 226.883 86.0938 227.555 86.0938C228.211 86.0938 228.828 85.9453 229.406 85.6484C230 85.3359 230.516 84.9297 230.953 84.4297C231.391 83.9297 231.734 83.3672 231.984 82.7422C232.234 82.1016 232.359 81.4453 232.359 80.7734V66.8984H238.805V88.8359C238.789 90.6016 238.445 92.2578 237.773 93.8047C237.102 95.3516 236.18 96.7031 235.008 97.8594C233.852 99.0156 232.5 99.9297 230.953 100.602C229.406 101.273 227.75 101.609 225.984 101.609L222.703 101.562ZM271.219 88.5547C269.656 89.8984 267.906 90.9297 265.969 91.6484C264.031 92.3672 262.023 92.7266 259.945 92.7266C258.352 92.7266 256.812 92.5156 255.328 92.0938C253.859 91.6875 252.477 91.1094 251.18 90.3594C249.898 89.5938 248.727 88.6797 247.664 87.6172C246.602 86.5547 245.688 85.3828 244.922 84.1016C244.172 82.8047 243.586 81.4219 243.164 79.9531C242.758 78.4688 242.555 76.9297 242.555 75.3359C242.555 73.7422 242.758 72.2031 243.164 70.7188C243.586 69.2344 244.172 67.8516 244.922 66.5703C245.688 65.2734 246.602 64.0938 247.664 63.0312C248.727 61.9688 249.898 61.0625 251.18 60.3125C252.477 59.5469 253.859 58.9609 255.328 58.5547C256.812 58.1328 258.352 57.9219 259.945 57.9219C262.023 57.9219 264.031 58.2812 265.969 59C267.906 59.7031 269.656 60.7344 271.219 62.0938L267.656 67.9531C266.672 66.8906 265.508 66.0781 264.164 65.5156C262.82 64.9375 261.414 64.6484 259.945 64.6484C258.461 64.6484 257.07 64.9297 255.773 65.4922C254.477 66.0547 253.344 66.8203 252.375 67.7891C251.406 68.7422 250.641 69.875 250.078 71.1875C249.516 72.4844 249.234 73.8672 249.234 75.3359C249.234 76.8047 249.516 78.1875 250.078 79.4844C250.641 80.7656 251.406 81.8906 252.375 82.8594C253.344 83.8281 254.477 84.5938 255.773 85.1562C257.07 85.7188 258.461 86 259.945 86C261.414 86 262.82 85.7188 264.164 85.1562C265.508 84.5781 266.672 83.7578 267.656 82.6953L271.219 88.5547ZM297.867 92H296.32L293.836 88.5547C293.227 89.1016 292.578 89.6172 291.891 90.1016C291.219 90.5703 290.508 90.9844 289.758 91.3438C289.008 91.6875 288.234 91.9609 287.438 92.1641C286.656 92.3672 285.859 92.4688 285.047 92.4688C283.281 92.4688 281.617 92.1719 280.055 91.5781C278.508 90.9844 277.148 90.125 275.977 89C274.82 87.8594 273.906 86.4688 273.234 84.8281C272.562 83.1875 272.227 81.3203 272.227 79.2266C272.227 77.2734 272.562 75.4844 273.234 73.8594C273.906 72.2188 274.82 70.8125 275.977 69.6406C277.148 68.4688 278.508 67.5625 280.055 66.9219C281.617 66.2656 283.281 65.9375 285.047 65.9375C285.859 65.9375 286.664 66.0391 287.461 66.2422C288.258 66.4453 289.031 66.7266 289.781 67.0859C290.531 67.4453 291.242 67.8672 291.914 68.3516C292.602 68.8359 293.242 69.3594 293.836 69.9219L296.32 66.9453H297.867V92ZM291.422 79.2266C291.422 78.3516 291.25 77.5078 290.906 76.6953C290.578 75.8672 290.125 75.1406 289.547 74.5156C288.969 73.875 288.289 73.3672 287.508 72.9922C286.742 72.6016 285.922 72.4062 285.047 72.4062C284.172 72.4062 283.344 72.5547 282.562 72.8516C281.797 73.1484 281.125 73.5859 280.547 74.1641C279.984 74.7422 279.539 75.4609 279.211 76.3203C278.883 77.1641 278.719 78.1328 278.719 79.2266C278.719 80.3203 278.883 81.2969 279.211 82.1562C279.539 83 279.984 83.7109 280.547 84.2891C281.125 84.8672 281.797 85.3047 282.562 85.6016C283.344 85.8984 284.172 86.0469 285.047 86.0469C285.922 86.0469 286.742 85.8594 287.508 85.4844C288.289 85.0938 288.969 84.5859 289.547 83.9609C290.125 83.3203 290.578 82.5938 290.906 81.7812C291.25 80.9531 291.422 80.1016 291.422 79.2266ZM316.547 92H301.922V85.625H316.547C316.984 85.625 317.359 85.4688 317.672 85.1562C317.984 84.8438 318.141 84.4688 318.141 84.0312C318.141 83.5781 317.984 83.2812 317.672 83.1406C317.359 83 316.984 82.9297 316.547 82.9297H309.891C308.781 82.9297 307.742 82.7188 306.773 82.2969C305.805 81.875 304.961 81.3047 304.242 80.5859C303.523 79.8516 302.953 79 302.531 78.0312C302.125 77.0625 301.922 76.0234 301.922 74.9141C301.922 73.8047 302.125 72.7656 302.531 71.7969C302.953 70.8281 303.523 69.9844 304.242 69.2656C304.961 68.5469 305.805 67.9844 306.773 67.5781C307.742 67.1562 308.781 66.9453 309.891 66.9453H322.852V73.3203H309.891C309.453 73.3203 309.078 73.4766 308.766 73.7891C308.453 74.1016 308.297 74.4766 308.297 74.9141C308.297 75.3672 308.453 75.7578 308.766 76.0859C309.078 76.3984 309.453 76.5547 309.891 76.5547H316.547C317.641 76.5547 318.672 76.7422 319.641 77.1172C320.609 77.4766 321.453 77.9844 322.172 78.6406C322.891 79.2969 323.461 80.0859 323.883 81.0078C324.305 81.9297 324.516 82.9375 324.516 84.0312C324.516 85.1406 324.305 86.1797 323.883 87.1484C323.461 88.1016 322.891 88.9453 322.172 89.6797C321.453 90.3984 320.609 90.9688 319.641 91.3906C318.672 91.7969 317.641 92 316.547 92ZM340.523 92C338.977 92 337.523 91.7109 336.164 91.1328C334.805 90.5391 333.609 89.7344 332.578 88.7188C331.562 87.6875 330.758 86.4922 330.164 85.1328C329.586 83.7734 329.297 82.3203 329.297 80.7734V73.3203H326.18V66.9453H329.297V56.9141H335.672V66.9453H345.375V73.3203H335.672V80.7734C335.672 81.4453 335.797 82.0781 336.047 82.6719C336.297 83.25 336.641 83.7578 337.078 84.1953C337.516 84.6328 338.031 84.9844 338.625 85.25C339.219 85.5 339.852 85.625 340.523 85.625H345.375V92H340.523Z" fill="white"/>
<circle cx="50" cy="50" r="50" fill="#055C9D"/>
<ellipse cx="120" cy="105.5" rx="28" ry="26.5" fill="#0E86D4"/>
<ellipse cx="66.7758" cy="140" rx="15.7759" ry="15" fill="#68BBE3"/>
</svg>
